<svg xmlns="http://www.w3.org/2000/svg" viewBox="0 0 24 24">
	<defs>
		<linearGradient id="icon-gradient" x1="0%" y1="0%" x2="100%" y2="0%">
			<stop offset="0%" style="stop-color: rgb(29, 78, 216)" />
			<stop offset="100%" style="stop-color: rgb(14, 165, 233)" />
		</linearGradient>
	</defs>
	<!-- Background circle with gradient -->
	<circle cx="12" cy="12" r="12" fill="url(#icon-gradient)" />
	<!-- White circle background for icon -->
	<circle cx="12" cy="12" r="10" fill="white" />
	<!-- Icon centered and scaled -->
	<path
		fill="url(#icon-gradient)"
		transform="scale(0.6) translate(8, 8)"
		d="m17.3 20.25l3.55-3.55l-.75-.75l-2.8 2.8l-1.4-1.4l-.75.75zM9 19V9H8v10zm2.7 2H8q-.825 0-1.412-.587T6 19V9q0-.825.588-1.412T8 7h6V4q-.825 0-1.412-.587T12 2h4v9.3q-.6.2-1.037.4t-.963.55V9h-3v10h.1q.075.6.225 1.05t.375.95m6.3-8q2.075 0 3.538 1.463T23 18t-1.463 3.538T18 23t-3.537-1.463T13 18t1.463-3.537T18 13m-9 6V9zm2 0V9z"
	/>
</svg> 